<svg xmlns="http://www.w3.org/2000/svg" viewBox="0 0 202.1 19.7"><path d="M202.2 15.1V4.9c0-3.2-1.6-4.8-4.8-4.8H169c-2.8 0-4.3 1.4-4.6 4h32.3c1.1 0 1.6.6 1.6 1.7v8.6c0 1-.5 1.6-1.5 1.6H170c-1.1 0-1.6-.5-1.6-1.6v-5h-4V15c0 3.2 1.6 4.8 4.7 4.8h28.5c3-.1 4.6-1.6 4.6-4.7zM128.7 3.9h32.4V0h-33.2c-2.8 0-4.3 1.4-4.6 4h5.3c.1 0 .1-.1.1-.1zm-41 0H120V0H86.8c-2.8 0-4.3 1.4-4.6 4h5.3c.1 0 .1-.1.2-.1zM79 15.1V4.9C79 1.6 77.4 0 74.2 0H45.8c-2.8 0-4.3 1.4-4.6 4h5v.1c.2 0 .2-.1.4-.1h26.8c1.1 0 1.6.5 1.6 1.6v8.6c0 1-.5 1.6-1.5 1.6H46.6c-1.1 0-1.6-.5-1.6-1.6V9.4h-4V15c0 3.2 1.6 4.8 4.7 4.8h28.5c3.2-.1 4.8-1.6 4.8-4.7zM37.9 8.6V4.7c0-3.1-1.6-4.7-4.8-4.7H0v4h32.4c1 0 1.5.5 1.5 1.5v2.4c0 1-.5 1.6-1.5 1.6H0v10.3h4v-6.3h29.1c3.2 0 4.8-1.7 4.8-4.9zm44.3.8v5.5c0 3.2 1.6 4.8 4.7 4.8H120v-3.9H87.6c-1 0-1.5-.5-1.5-1.6V9.4h-3.9zm41 0v5.5c0 3.2 1.6 4.8 4.7 4.8h33.2v-3.9h-32.4c-1 0-1.5-.5-1.5-1.6V9.4h-4z"/></svg>